Wall Street Money Never Sleeps(2010)1080p AC3+DTS Eng-NLSubs-DMT

Verenigde Staten
Drama / Thriller
127 minuten

geregisseerd door Oliver Stone
met Michael Douglas, Shia LaBeouf en Josh Brolin

Na een gevangenisstraf van 8 jaar komt Gordon Gekko vrij. Ondanks zijn pogingen om 
Wall Street te waarschuwen voor de nakende economische ondergang, gelooft niemand 
hem door zijn afgenomen status in de financiële wereld. Hij besluit daarom maar om zich 
te concentreren op z'n privéleven. Hij wil de verwaterde relatie met z'n dochter Winnie 
verbeteren, maar door zijn lange afwezigheid en het feit dat Winnie hem de zelfmoord van 
haar broer Rudy verwijt, wil ze niks met hem te maken hebben. Ondertussen sterft de 
mentor van Jacob, een jonge beursmakelaar die de beleggingsfonds manager Bretton James 
verdenkt van de moord op z'n mentor. Jacob, die ook de verloofde van Winnie Gekko is, 
wil wraak en rekent daarbij op de hulp van Gordon. Gordon besluit Jacob te helpen, 
in de hoop zo dichter bij z'n dochter te raken.

Momenteel te zien in 1 bioscoop 
----------------------------------------------------------------------------------------

[IMG]http://img148.imageshack.us/img148/9075/wallstreetmoneyneverslek.jpg[/IMG]

PLOT

As the global economy teeters on the brink of disaster, 
a young Wall Street trader partners with disgraced...
---------------------------------------------------------------------------------------
 
http://www.youtube.com/watch?v=873PrTZkLsI

MM:    http://www.moviemeter.nl/film/62996

IMDB:   http://www.imdb.com/title/tt1027718/
---------------------------------------------------------------------------------------

INFO

ViDEO ......: 1920*816 @ 10547 kbps 
AUDiO 1.....: 1510 kbps DTS 
Audio 2.....: 640 kbps AC3
RUNTiME ....: 127 mins 
SUBTiTLES ..: English and Dutch
SIZE........: 11,5 GB

Thanks To Woutje_nl

Enjoy


General
Complete name                    : Wall.Street.Money.Never.Sleeps.2010.1080p.AC3.DTS.Eng.NLSubs-DMT.mkv
Format                           : Matroska
File size                        : 11.5 GiB
Duration                         : 2h 12mn
Overall bit rate                 : 12.4 Mbps
Encoded date                     : UTC 2010-11-21 16:28:32
Writing application              : mkvmerge v3.1.0 ('Happy up here') built on Jan 19 2010 12:09:24
Writing library                  : libebml v0.7.9 + libmatroska v0.8.1

Video
ID                               : 1
Format                           : AVC
Format/Info                      : Advanced Video Codec
Format profile                   : High@L4.1
Format settings, CABAC           : Yes
Format settings, ReFrames        : 5 frames
Muxing mode                      : Container profile=Unknown@4.1
Codec ID                         : V_MPEG4/ISO/AVC
Duration                         : 2h 12mn
Bit rate                         : 10.3 Mbps
Width                            : 1 920 pixels
Height                           : 816 pixels
Display aspect ratio             : 2.35:1
Frame rate                       : 23.976 fps
Color space                      : YUV
Chroma subsampling               : 4:2:0
Bit depth                        : 8 bits
Scan type                        : Progressive
Bits/(Pixel*Frame)               : 0.273
Stream size                      : 9.31 GiB (81%)
Writing library                  : x264 core 105 r1732 2b04482
Encoding settings                : cabac=1 / ref=5 / deblock=1:-3:-3 / analyse=0x3:0x133 / 
me=umh / subme=10 / psy=1 / psy_rd=1.00:0.00 / mixed_ref=1 / me_range=64 / chroma_me=1 / 
trellis=2 / 8x8dct=1 / cqm=0 / deadzone=21,11 / fast_pskip=0 / chroma_qp_offset=-2 / 
threads=6 / sliced_threads=0 / nr=0 / decimate=0 / interlaced=0 / constrained_intra=0 / 
bframes=6 / b_pyramid=2 / b_adapt=2 / b_bias=0 / direct=3 / weightb=1 / open_gop=0 / 
weightp=2 / keyint=250 / keyint_min=23 / scenecut=40 / intra_refresh=0 / rc_lookahead=60 / 
rc=2pass / mbtree=1 / bitrate=10264 / ratetol=1.0 / qcomp=0.60 / qpmin=10 / qpmax=51 / 
qpstep=4 / cplxblur=20.0 / qblur=0.5 / vbv_maxrate=50000 / vbv_bufsize=50000 / 
ip_ratio=1.50 / aq=1:1.00 / nal_hrd=none
Language                         : English

Audio #1
ID                               : 2
Format                           : AC-3
Format/Info                      : Audio Coding 3
Mode extension                   : CM (complete main)
Codec ID                         : A_AC3
Duration                         : 2h 12mn
Bit rate mode                    : Constant
Bit rate                         : 640 Kbps
Channel(s)                       : 6 channels
Channel positions                : Front: L C R, Side: L R, LFE
Sampling rate                    : 48.0 KHz
Bit depth                        : 16 bits
Stream size                      : 609 MiB (5%)
Language                         : English

Audio #2
ID                               : 3
Format                           : DTS
Format/Info                      : Digital Theater Systems
Codec ID                         : A_DTS
Duration                         : 2h 12mn
Bit rate mode                    : Constant
Bit rate                         : 1 510 Kbps
Channel(s)                       : 6 channels
Channel positions                : Front: L C R, Side: L R, LFE
Sampling rate                    : 48.0 KHz
Bit depth                        : 24 bits
Stream size                      : 1.40 GiB (12%)

Text #1
ID                               : 4
Format                           : UTF-8
Codec ID                         : S_TEXT/UTF8
Codec ID/Info                    : UTF-8 Plain Text
Language                         : Dutch

Text #2
ID                               : 5
Format                           : UTF-8
Codec ID                         : S_TEXT/UTF8
Codec ID/Info                    : UTF-8 Plain Text
Language                         : English


